{
	"asset":{
		"generator":"Khronos glTF Blender I/O v4.0.44",
		"version":"2.0"
	},
	"scene":0,
	"scenes":[
		{
			"name":"Scene",
			"nodes":[
				2,
				4,
				5,
				6,
				7
			]
		}
	],
	"nodes":[
		{
			"name":"Armature",
			"scale":[
				16.13806915283203,
				16.13806915283203,
				16.13806915283203
			],
			"translation":[
				0,
				-0.8227136135101318,
				0
			]
		},
		{
			"children":[
				0
			],
			"name":"RootNode"
		},
		{
			"children":[
				1
			],
			"name":"baca419299ae4ecdb4f8ec57d87abb05.fbx",
			"rotation":[
				0.70710688829422,
				0,
				0,
				0.7071066498756409
			],
			"scale":[
				0.009999999776482582,
				0.010000000707805157,
				0.010000000707805157
			]
		},
		{
			"name":"7cf8caf9a46744c4bb264223b90b66d4.stl.cleaner.materialmerger.gle"
		},
		{
			"children":[
				3
			],
			"name":"Sketchfab_model",
			"rotation":[
				-0.70710688829422,
				0,
				0,
				0.7071066498756409
			]
		},
		{
			"mesh":0,
			"name":"Cube",
			"scale":[
				36.22639846801758,
				36.22639846801758,
				36.22639846801758
			],
			"translation":[
				0,
				31.477676391601562,
				0
			]
		},
		{
			"mesh":1,
			"name":"Cylinder",
			"scale":[
				8.81207275390625,
				8.81207275390625,
				8.81207275390625
			],
			"translation":[
				29.873153686523438,
				8.854893684387207,
				0
			]
		},
		{
			"mesh":2,
			"name":"Floor",
			"scale":[
				50,
				1,
				50
			]
		}
	],
	"materials":[
		{
			"doubleSided":true,
			"name":"Material",
			"pbrMetallicRoughness":{
				"baseColorFactor":[
					0.8006941080093384,
					0.03143653646111488,
					0.2815157473087311,
					1
				],
				"metallicFactor":0,
				"roughnessFactor":0.5
			}
		},
		{
			"doubleSided":true,
			"name":"Floor",
			"pbrMetallicRoughness":{
				"baseColorFactor":[
					0.024632960557937622,
					0.024632960557937622,
					0.024632960557937622,
					1
				],
				"metallicFactor":0.5590551495552063,
				"roughnessFactor":0.32677164673805237
			}
		}
	],
	"meshes":[
		{
			"name":"Cube.002",
			"primitives":[
				{
					"attributes":{
						"POSITION":0,
						"NORMAL":1,
						"TEXCOORD_0":2
					},
					"indices":3
				}
			]
		},
		{
			"name":"Cylinder",
			"primitives":[
				{
					"attributes":{
						"POSITION":4,
						"NORMAL":5,
						"TEXCOORD_0":6
					},
					"indices":7,
					"material":0
				}
			]
		},
		{
			"name":"Plane",
			"primitives":[
				{
					"attributes":{
						"POSITION":8,
						"NORMAL":9,
						"TEXCOORD_0":10
					},
					"indices":11,
					"material":1
				}
			]
		}
	],
	"accessors":[
		{
			"bufferView":0,
			"componentType":5126,
			"count":176,
			"max":[
				1,
				-0.3452870547771454,
				1
			],
			"min":[
				-1,
				-1,
				-1
			],
			"type":"VEC3"
		},
		{
			"bufferView":1,
			"componentType":5126,
			"count":176,
			"type":"VEC3"
		},
		{
			"bufferView":2,
			"componentType":5126,
			"count":176,
			"type":"VEC2"
		},
		{
			"bufferView":3,
			"componentType":5123,
			"count":270,
			"type":"SCALAR"
		},
		{
			"bufferView":4,
			"componentType":5126,
			"count":192,
			"max":[
				1,
				1,
				1
			],
			"min":[
				-1,
				-1,
				-1
			],
			"type":"VEC3"
		},
		{
			"bufferView":5,
			"componentType":5126,
			"count":192,
			"type":"VEC3"
		},
		{
			"bufferView":6,
			"componentType":5126,
			"count":192,
			"type":"VEC2"
		},
		{
			"bufferView":7,
			"componentType":5123,
			"count":372,
			"type":"SCALAR"
		},
		{
			"bufferView":8,
			"componentType":5126,
			"count":4,
			"max":[
				1,
				0,
				1
			],
			"min":[
				-1,
				0,
				-1
			],
			"type":"VEC3"
		},
		{
			"bufferView":9,
			"componentType":5126,
			"count":4,
			"type":"VEC3"
		},
		{
			"bufferView":10,
			"componentType":5126,
			"count":4,
			"type":"VEC2"
		},
		{
			"bufferView":11,
			"componentType":5123,
			"count":6,
			"type":"SCALAR"
		}
	],
	"bufferViews":[
		{
			"buffer":0,
			"byteLength":2112,
			"byteOffset":0,
			"target":34962
		},
		{
			"buffer":0,
			"byteLength":2112,
			"byteOffset":2112,
			"target":34962
		},
		{
			"buffer":0,
			"byteLength":1408,
			"byteOffset":4224,
			"target":34962
		},
		{
			"buffer":0,
			"byteLength":540,
			"byteOffset":5632,
			"target":34963
		},
		{
			"buffer":0,
			"byteLength":2304,
			"byteOffset":6172,
			"target":34962
		},
		{
			"buffer":0,
			"byteLength":2304,
			"byteOffset":8476,
			"target":34962
		},
		{
			"buffer":0,
			"byteLength":1536,
			"byteOffset":10780,
			"target":34962
		},
		{
			"buffer":0,
			"byteLength":744,
			"byteOffset":12316,
			"target":34963
		},
		{
			"buffer":0,
			"byteLength":48,
			"byteOffset":13060,
			"target":34962
		},
		{
			"buffer":0,
			"byteLength":48,
			"byteOffset":13108,
			"target":34962
		},
		{
			"buffer":0,
			"byteLength":32,
			"byteOffset":13156,
			"target":34962
		},
		{
			"buffer":0,
			"byteLength":12,
			"byteOffset":13188,
			"target":34963
		}
	],
	"buffers":[
		{
			"byteLength":13200,
			"uri":"world.bin"
		}
	]
}
